<?xml version="1.0" encoding="utf-8"?>
<!-- Generator: Adobe Illustrator 21.0.0, SVG Export Plug-In . SVG Version: 6.00 Build 0)  -->
<svg version="1.1" id="Capa_1" xmlns="http://www.w3.org/2000/svg" xmlns:xlink="http://www.w3.org/1999/xlink" x="0px" y="0px"
	 viewBox="0 0 200 200" style="enable-background:new 0 0 200 200;" xml:space="preserve">
<style type="text/css">
	.st0{fill:#BD944D;}
	.st1{fill:none;stroke:#BD944D;stroke-width:2;stroke-miterlimit:10;}
</style>
<path class="st0" d="M144.6,131.4H55.4c-2.9,0-5.3-2.4-5.3-5.3V73.8c0-2.9,2.4-5.3,5.3-5.3h89.2c2.9,0,5.3,2.4,5.3,5.3v52.3
	C149.9,129,147.5,131.4,144.6,131.4z M55.4,73.7c-0.1,0-0.2,0.1-0.2,0.2v52.3c0,0.1,0.1,0.2,0.2,0.2h89.2c0.1,0,0.2-0.1,0.2-0.2
	V73.8c0-0.1-0.1-0.2-0.2-0.2H55.4z"/>
<path class="st0" d="M290.3-77h-51.8c-3,0-5.5-2.5-5.5-5.5v-88.8c0-3,2.5-5.5,5.5-5.5h51.8c3,0,5.5,2.5,5.5,5.5v88.8
	C295.8-79.4,293.3-77,290.3-77z M238.4-171.6c-0.2,0-0.4,0.2-0.4,0.4v88.8c0,0.2,0.2,0.4,0.4,0.4h51.8c0.2,0,0.4-0.2,0.4-0.4v-88.8
	c0-0.2-0.2-0.4-0.4-0.4H238.4z"/>
<path class="st0" d="M100,113.2c-0.9,0-1.8-0.2-2.6-0.7l-46-25.6l2.5-4.5l46,25.6l46.2-25.6l2.5,4.5l-46,25.6
	C101.8,113,100.9,113.2,100,113.2z"/>
<path class="st0" d="M251.4-174.2l2.5,5.3c0.6,1.2,1.8,2,3.1,2h14.8c1.2,0,2.4-0.7,3-1.7l3.2-5.6"/>
<path class="st0" d="M267.6-86.5h-8.1c-0.6,0-1-0.5-1-1v-3.3c0-0.6,0.5-1,1-1h8.1c0.6,0,1,0.5,1,1v3.3
	C268.7-87,268.2-86.5,267.6-86.5z"/>
<g>
	<path class="st0" d="M302.1-27.1H297c0-7.6-2.7-15-7.6-20.8c-3-3.6-6.9-6.5-11.1-8.5c-4.2-2-8.8-2.9-13.5-2.9
		c-4.7,0-9.2,1-13.5,2.9c-4.2,2-8.1,4.9-11.1,8.5c-4.9,5.8-7.6,13.2-7.6,20.8h-5.1c0-8.8,3.1-17.4,8.9-24.1c3.5-4.1,8-7.5,12.9-9.8
		c4.9-2.3,10.1-3.4,15.6-3.4c5.4,0,10.7,1.1,15.6,3.4c4.9,2.3,9.4,5.6,12.9,9.8C298.9-44.6,302.1-36,302.1-27.1z"/>
	<polygon class="st0" points="264.7,41.5 227.4,-13.2 227.4,-27.1 232.5,-27.1 232.5,-14.8 264.7,32.4 297,-14.8 297,-27.1
		302,-27.1 302,-13.2 301.6,-12.5 	"/>
</g>
<g>
	<path class="st0" d="M300.9,209.6h-5.1c0-7.6-2.7-15-7.6-20.8c-3-3.6-6.9-6.5-11.1-8.5c-4.2-2-8.8-2.9-13.5-2.9
		c-4.7,0-9.2,1-13.5,2.9c-4.2,2-8.1,4.9-11.1,8.5c-4.9,5.8-7.6,13.2-7.6,20.8h-5.1c0-8.9,3.1-17.4,8.9-24.1c3.5-4.1,8-7.5,12.9-9.8
		c4.9-2.3,10.1-3.4,15.6-3.4c5.4,0,10.7,1.1,15.6,3.4c4.9,2.3,9.4,5.6,12.9,9.8C297.8,192.1,300.9,200.7,300.9,209.6z"/>
	<polygon class="st0" points="263.6,278.2 226.2,223.5 226.2,209.6 231.3,209.6 231.3,222 263.6,269.1 295.8,222 295.8,209.6
		300.9,209.6 300.9,223.5 300.5,224.2 	"/>
</g>
<path class="st0" d="M264.4-9.4c-9.8,0-17.7-7.9-17.7-17.7c0-9.8,7.9-17.7,17.7-17.7c9.8,0,17.7,7.9,17.7,17.7
	C282.1-17.4,274.1-9.4,264.4-9.4z M264.4-39.8c-7,0-12.6,5.7-12.6,12.6c0,7,5.7,12.6,12.6,12.6S277-20.2,277-27.1
	C277-34.1,271.3-39.8,264.4-39.8z"/>
<path class="st0" d="M263.6,142.2c-20.4,0-37-16.6-37-37s16.6-37,37-37c20.4,0,37,16.6,37,37S284,142.2,263.6,142.2z M263.6,73.4
	c-17.6,0-31.9,14.3-31.9,31.9s14.3,31.9,31.9,31.9c17.6,0,31.9-14.3,31.9-31.9S281.2,73.4,263.6,73.4z"/>
<path class="st0" d="M246.9,76.7h-5.1V66.2c0-9.3,7.6-16.9,16.9-16.9h9.7c9.3,0,16.9,7.6,16.9,16.9v10.5h-5.1V66.2
	c0-6.5-5.3-11.8-11.8-11.8h-9.7c-6.5,0-11.8,5.3-11.8,11.8V76.7z"/>
<path class="st0" d="M268.4,161.3h-9.7c-9.3,0-16.9-7.6-16.9-16.9v-10.6h5.1v10.6c0,6.5,5.3,11.8,11.8,11.8h9.7
	c6.5,0,11.8-5.3,11.8-11.8v-10.6h5.1v10.6C285.4,153.7,277.8,161.3,268.4,161.3z"/>
<circle class="st0" cx="263.6" cy="105.3" r="3.1"/>
<rect x="256.8" y="92.3" transform="matrix(0.4024 -0.9155 0.9155 0.4024 73.4722 302.1719)" class="st0" width="22.9" height="5.1"/>
<path class="st1" d="M284.7,122"/>
<rect x="239.6" y="104.3" transform="matrix(0.9983 -5.860750e-02 5.860750e-02 0.9983 -5.7789 14.9349)" class="st0" width="24.3" height="3.4"/>
<rect x="247.1" y="193.4" style="fill:none;" width="68.5" height="82.6"/>
<text transform="matrix(1 0 0 1 247.1406 233.5557)" class="st0" style="font-family:'ArialMT'; font-size:56.0158px;">P</text>
</svg>
