<?xml version="1.0" encoding="utf-8"?>
<!-- Generator: Adobe Illustrator 21.0.0, SVG Export Plug-In . SVG Version: 6.00 Build 0)  -->
<svg version="1.1" id="Capa_1" xmlns="http://www.w3.org/2000/svg" xmlns:xlink="http://www.w3.org/1999/xlink" x="0px" y="0px"
	 viewBox="0 0 200 200" style="enable-background:new 0 0 200 200;" xml:space="preserve">
<style type="text/css">
	.st0{fill:#BD944D;}
	.st1{fill:none;stroke:#BD944D;stroke-width:2;stroke-miterlimit:10;}
	.st2{fill:none;}
	.st3{font-family:'ArialMT';}
	.st4{font-size:56.0158px;}
</style>
<path class="st0" d="M10.3-20.7h-89.2c-2.9,0-5.3-2.4-5.3-5.3v-52.3c0-2.9,2.4-5.3,5.3-5.3h89.2c2.9,0,5.3,2.4,5.3,5.3V-26
	C15.6-23.1,13.2-20.7,10.3-20.7z M-78.9-78.5c-0.1,0-0.2,0.1-0.2,0.2V-26c0,0.1,0.1,0.2,0.2,0.2h89.2c0.1,0,0.2-0.1,0.2-0.2v-52.3
	c0-0.1-0.1-0.2-0.2-0.2H-78.9z"/>
<path class="st0" d="M108.2-19.8H56.3c-3,0-5.5-2.5-5.5-5.5V-114c0-3,2.5-5.5,5.5-5.5h51.8c3,0,5.5,2.5,5.5,5.5v88.8
	C113.7-22.2,111.2-19.8,108.2-19.8z M56.3-114.4c-0.2,0-0.4,0.2-0.4,0.4v88.8c0,0.2,0.2,0.4,0.4,0.4h51.8c0.2,0,0.4-0.2,0.4-0.4
	V-114c0-0.2-0.2-0.4-0.4-0.4H56.3z"/>
<path class="st0" d="M-34.3-39c-0.9,0-1.8-0.2-2.6-0.7l-46-25.6l2.5-4.5l46,25.6l46.2-25.6l2.5,4.5l-46,25.6
	C-32.5-39.2-33.4-39-34.3-39z"/>
<path class="st0" d="M69.3-117l2.5,5.3c0.6,1.2,1.8,2,3.1,2h14.8c1.2,0,2.4-0.7,3-1.7l3.2-5.6"/>
<path class="st0" d="M85.5-29.3h-8.1c-0.6,0-1-0.5-1-1v-3.3c0-0.6,0.5-1,1-1h8.1c0.6,0,1,0.5,1,1v3.3C86.6-29.8,86.1-29.3,85.5-29.3
	z"/>
<g>
	<path class="st0" d="M207.9-85.3h-5.1c0-7.6-2.7-15-7.6-20.8c-3-3.6-6.9-6.5-11.1-8.5c-4.2-2-8.8-2.9-13.5-2.9
		c-4.7,0-9.2,1-13.5,2.9c-4.2,2-8.1,4.9-11.1,8.5c-4.9,5.8-7.6,13.2-7.6,20.8h-5.1c0-8.8,3.1-17.4,8.9-24.1c3.5-4.1,8-7.5,12.9-9.8
		c4.9-2.3,10.1-3.4,15.6-3.4c5.4,0,10.7,1.1,15.6,3.4c4.9,2.3,9.4,5.6,12.9,9.8C204.8-102.7,207.9-94.1,207.9-85.3z"/>
	<polygon class="st0" points="170.6,-16.7 133.2,-71.3 133.2,-85.3 138.3,-85.3 138.3,-72.9 170.6,-25.7 202.8,-72.9 202.8,-85.3
		207.9,-85.3 207.9,-71.3 207.5,-70.7 	"/>
</g>
<g>
	<path class="st0" d="M137.8,84.4h-5.1c0-7.6-2.7-15-7.6-20.8c-3-3.6-6.9-6.5-11.1-8.5c-4.2-2-8.8-2.9-13.5-2.9
		c-4.7,0-9.2,1-13.5,2.9c-4.2,2-8.1,4.9-11.1,8.5c-4.9,5.8-7.6,13.2-7.6,20.8h-5.1c0-8.9,3.1-17.4,8.9-24.1c3.5-4.1,8-7.5,12.9-9.8
		C89.8,48.2,95,47,100.5,47c5.4,0,10.7,1.1,15.6,3.4c4.9,2.3,9.4,5.6,12.9,9.8C134.7,66.9,137.8,75.5,137.8,84.4z"/>
	<polygon class="st0" points="100.5,153 63.1,98.3 63.1,84.4 68.2,84.4 68.2,96.7 100.5,143.9 132.7,96.7 132.7,84.4 137.8,84.4
		137.8,98.3 137.4,99 	"/>
</g>
<path class="st0" d="M170.2-67.6c-9.8,0-17.7-7.9-17.7-17.7c0-9.8,7.9-17.7,17.7-17.7s17.7,7.9,17.7,17.7
	C187.9-75.5,180-67.6,170.2-67.6z M170.2-97.9c-7,0-12.6,5.7-12.6,12.6c0,7,5.7,12.6,12.6,12.6s12.6-5.7,12.6-12.6
	C182.8-92.3,177.2-97.9,170.2-97.9z"/>
<path class="st0" d="M261-26.5c-20.4,0-37-16.6-37-37s16.6-37,37-37c20.4,0,37,16.6,37,37S281.4-26.5,261-26.5z M261-95.4
	c-17.6,0-31.9,14.3-31.9,31.9s14.3,31.9,31.9,31.9c17.6,0,31.9-14.3,31.9-31.9S278.6-95.4,261-95.4z"/>
<path class="st0" d="M244.3-92h-5.1v-10.6c0-9.3,7.6-16.9,16.9-16.9h9.7c9.3,0,16.9,7.6,16.9,16.9V-92h-5.1v-10.5
	c0-6.5-5.3-11.8-11.8-11.8h-9.7c-6.5,0-11.8,5.3-11.8,11.8V-92z"/>
<path class="st0" d="M265.8-7.5h-9.7c-9.3,0-16.9-7.6-16.9-16.9V-35h5.1v10.6c0,6.5,5.3,11.8,11.8,11.8h9.7
	c6.5,0,11.8-5.3,11.8-11.8V-35h5.1v10.6C282.8-15.1,275.2-7.5,265.8-7.5z"/>
<circle class="st0" cx="261" cy="-63.5" r="3.1"/>
<rect x="254.2" y="-76.5" transform="matrix(0.4024 -0.9155 0.9155 0.4024 226.4278 198.9496)" class="st0" width="22.9" height="5.1"/>
<path class="st1" d="M282.1-46.8"/>
<rect x="237" y="-64.5" transform="matrix(0.9983 -5.860750e-02 5.860750e-02 0.9983 4.1076 14.4933)" class="st0" width="24.3" height="3.4"/>
<rect x="84" y="68.2" class="st2" width="68.5" height="82.6"/>
<text transform="matrix(1 0 0 1 84.0343 108.3481)" class="st0 st3 st4">P</text>
</svg>
